<svg width="600" height="120" viewBox="0 0 600 120" fill="none" xmlns="http://www.w3.org/2000/svg">
<rect x="0.5" y="0.5" width="599" height="119" rx="9.5" fill="#FAFAFA" stroke="#EAEAEA"/>
<path d="M21.7 96C20.7 96 20.2 95.6667 20.2 95C20.2 94.3333 20.6667 93.9 21.6 93.7L23.1 93.4C24.4333 93.1333 25.4333 92.5 26.1 91.5C26.7667 90.4333 27.3333 88.9667 27.8 87.1L43.3 24.6C43.4333 23.9333 43.6333 23.5 43.9 23.3C44.2333 23.1 44.5333 23 44.8 23C45.1333 23 45.4333 23.1 45.7 23.3C46.0333 23.5 46.2667 23.9333 46.4 24.6L62.2 88C62.6667 89.8667 63.2 91.1667 63.8 91.9C64.4 92.6333 65.3333 93.1333 66.6 93.4L68.1 93.7C69.0333 93.9 69.5 94.3333 69.5 95C69.5 95.6667 69 96 68 96H50.9C49.9667 96 49.5 95.6333 49.5 94.9C49.5 94.1667 50.0667 93.7667 51.2 93.7L53.1 93.5C54.2333 93.3667 54.9333 93 55.2 92.4C55.5333 91.8 55.5333 90.7667 55.2 89.3L51.4 73.8C51 72.0667 49.9 71.2 48.1 71.2H37.6C35.8667 71.2 34.7667 72.0667 34.3 73.8L30.9 87.2C29.9 91 30.9 93.1 33.9 93.5L35.4 93.7C36.5333 93.9 37.1 94.3 37.1 94.9C37.1 95.6333 36.6333 96 35.7 96H21.7ZM37.3 68.2H48.3C49.3667 68.2 49.8 67.6333 49.6 66.5L43.2 39.7H42.7L36 66.5C35.8 67.6333 36.2333 68.2 37.3 68.2ZM70.7031 96C69.7031 96 69.2031 95.6333 69.2031 94.9C69.2031 94.3 69.6365 93.9 70.5031 93.7L71.7031 93.5C73.1031 93.2333 74.0031 92.8333 74.4031 92.3C74.8698 91.7 75.1031 90.7 75.1031 89.3V55.7C75.1031 54.5 74.9031 53.7 74.5031 53.3C74.1698 52.8333 73.5365 52.5333 72.6031 52.4L70.5031 52.1C69.6365 52.0333 69.2031 51.6667 69.2031 51C69.2031 50.4667 69.7365 50.1 70.8031 49.9C72.8698 49.5667 74.4365 49.0333 75.5031 48.3C76.6365 47.5667 77.8031 46.6667 79.0031 45.6C79.6031 45 80.1031 44.7 80.5031 44.7C81.1031 44.7 81.4031 45.1 81.4031 45.9V50.4C81.4031 51 81.6031 51.4 82.0031 51.6C82.4698 51.7333 82.9698 51.5333 83.5031 51C86.1698 48.4667 88.5031 46.7333 90.5031 45.8C92.5698 44.8667 94.7365 44.4 97.0031 44.4C100.003 44.4 102.403 45.4667 104.203 47.6C106.003 49.6667 106.903 52.7333 106.903 56.8V89.3C106.903 90.7 107.103 91.7 107.503 92.3C107.97 92.8333 108.903 93.2 110.303 93.4L112.503 93.7C113.236 93.8333 113.603 94.2333 113.603 94.9C113.603 95.6333 113.203 96 112.403 96H95.6031C94.6698 96 94.2031 95.6333 94.2031 94.9C94.2031 94.2333 94.5698 93.8333 95.3031 93.7L96.7031 93.5C98.1031 93.3 99.0031 92.9 99.4031 92.3C99.8698 91.7 100.103 90.7 100.103 89.3V57.9C100.103 54.6333 99.5031 52.3333 98.3031 51C97.1031 49.6667 95.4031 49 93.2031 49C91.0698 49 89.1365 49.6333 87.4031 50.9C85.7365 52.1 84.4031 53.7333 83.4031 55.8C82.4031 57.8 81.9031 60.0333 81.9031 62.5V89.3C81.9031 90.7 82.1031 91.7 82.5031 92.3C82.9698 92.9 83.9031 93.2667 85.3031 93.4L88.0031 93.7C88.7365 93.8333 89.1031 94.2 89.1031 94.8C89.1031 95.6 88.6031 96 87.6031 96H70.7031ZM132.776 96.9C129.842 96.9 127.209 95.9 124.876 93.9C122.609 91.8333 120.842 89 119.576 85.4C118.309 81.7333 117.676 77.5 117.676 72.7C117.676 67.1 118.542 62.2 120.276 58C122.009 53.7333 124.409 50.4 127.476 48C130.542 45.6 134.009 44.4 137.876 44.4C138.809 44.4 139.742 44.5 140.676 44.7C141.609 44.8333 142.509 45.1 143.376 45.5C144.442 46.0333 144.976 45.8 144.976 44.8V32C144.976 30.8 144.776 29.9667 144.376 29.5C144.042 29.0333 143.409 28.7667 142.476 28.7L139.876 28.4C139.142 28.2667 138.776 27.8667 138.776 27.2C138.776 26.5333 139.142 26.1333 139.876 26C142.009 25.6 143.709 25.1333 144.976 24.6C146.309 24.0667 147.409 23.5333 148.276 23C149.342 22.3333 150.142 22 150.676 22C151.409 22 151.776 22.5333 151.776 23.6V86.5C151.776 89.3 152.476 90.7 153.876 90.7C154.742 90.7 155.542 90.1333 156.276 89C157.009 87.8 157.376 85.8 157.376 83C157.376 81.9333 157.809 81.4 158.676 81.4C159.476 81.4 159.876 81.9667 159.876 83.1C159.876 87.9667 159.042 91.5 157.376 93.7C155.709 95.8333 153.809 96.9 151.676 96.9C149.742 96.9 148.276 96.2667 147.276 95C146.276 93.6667 145.609 92.1 145.276 90.3C145.209 89.7667 144.976 89.5 144.576 89.5C144.176 89.4333 143.809 89.6667 143.476 90.2C141.609 92.8 139.909 94.5667 138.376 95.5C136.842 96.4333 134.976 96.9 132.776 96.9ZM134.976 92.3C136.709 92.3 138.309 91.7333 139.776 90.6C141.309 89.4 142.542 87.8 143.476 85.8C144.476 83.8 144.976 81.5667 144.976 79.1V56.6C144.976 53.6 144.276 51.2333 142.876 49.5C141.542 47.7667 139.776 46.9 137.576 46.9C133.842 46.9 130.809 49.1 128.476 53.5C126.209 57.8333 125.076 63.7667 125.076 71.3C125.076 78.1667 125.942 83.4 127.676 87C129.476 90.5333 131.909 92.3 134.976 92.3ZM175.779 51.4C178.512 46.7333 181.812 44.4 185.679 44.4C187.879 44.4 189.512 45.0667 190.579 46.4C191.646 47.6667 192.179 49.1 192.179 50.7C192.179 51.9667 191.846 53 191.179 53.8C190.579 54.6 189.612 55 188.279 55C187.212 55 186.412 54.7667 185.879 54.3C185.412 53.7667 185.012 53.1667 184.679 52.5C184.412 51.8333 184.079 51.2667 183.679 50.8C183.279 50.2667 182.612 50 181.679 50C180.479 50 179.346 50.7333 178.279 52.2C177.212 53.6 176.312 55.5 175.579 57.9C174.912 60.3 174.579 63.0333 174.579 66.1V89.3C174.579 90.7 174.779 91.7 175.179 92.3C175.646 92.9 176.579 93.2667 177.979 93.4L180.679 93.7C181.412 93.8333 181.779 94.2 181.779 94.8C181.779 95.6 181.279 96 180.279 96H163.379C162.379 96 161.879 95.6333 161.879 94.9C161.879 94.3 162.312 93.9 163.179 93.7L164.379 93.5C165.779 93.2333 166.679 92.8333 167.079 92.3C167.546 91.7 167.779 90.7 167.779 89.3V55.7C167.779 54.5 167.579 53.7 167.179 53.3C166.846 52.8333 166.212 52.5333 165.279 52.4L163.179 52.1C162.312 52.0333 161.879 51.6667 161.879 51C161.879 50.4667 162.412 50.1 163.479 49.9C165.546 49.5667 167.112 49.0333 168.179 48.3C169.312 47.5667 170.479 46.6667 171.679 45.6C172.279 45 172.779 44.7 173.179 44.7C173.779 44.7 174.079 45.1 174.079 45.9V51.3C174.079 51.7667 174.279 52.0667 174.679 52.2C175.079 52.2667 175.446 52 175.779 51.4ZM211.415 96.9C208.215 96.9 205.348 95.8333 202.815 93.7C200.282 91.5667 198.248 88.5667 196.715 84.7C195.248 80.7667 194.515 76.2333 194.515 71.1C194.515 65.8333 195.282 61.2 196.815 57.2C198.348 53.2 200.448 50.0667 203.115 47.8C205.782 45.5333 208.748 44.4 212.015 44.4C215.948 44.4 219.115 46.0333 221.515 49.3C223.982 52.5 225.215 57.7333 225.215 65C225.215 67.2 224.382 68.3 222.715 68.3H203.715C202.382 68.3 201.715 69.0667 201.715 70.6C201.715 77.6667 202.748 82.9667 204.815 86.5C206.882 90.0333 209.515 91.8 212.715 91.8C215.248 91.8 217.315 90.9 218.915 89.1C220.515 87.3 221.815 84.2667 222.815 80C223.015 79.2667 223.448 78.9 224.115 78.9C224.915 78.9 225.215 79.5667 225.015 80.9C223.948 86.8333 222.248 91 219.915 93.4C217.582 95.7333 214.748 96.9 211.415 96.9ZM203.415 65.8H213.515C216.715 65.8 218.315 64.1333 218.315 60.8C218.315 56.4667 217.782 53.0667 216.715 50.6C215.648 48.1333 214.048 46.9 211.915 46.9C209.315 46.9 207.115 48.4 205.315 51.4C203.582 54.4 202.448 58.6667 201.915 64.2C201.782 65.2667 202.282 65.8 203.415 65.8ZM246.462 96.9C245.595 96.9 244.995 96.2333 244.662 94.9L232.562 51.7C232.095 50.1 231.628 49.0667 231.162 48.6C230.762 48.1333 230.095 47.8 229.162 47.6L227.662 47.3C226.795 47.1 226.362 46.6667 226.362 46C226.362 45.3333 226.828 45 227.762 45H243.962C244.895 45 245.362 45.3333 245.362 46C245.362 46.7333 244.928 47.1667 244.062 47.3L242.462 47.5C240.862 47.7 239.862 48.1 239.462 48.7C239.062 49.2333 239.062 50.2333 239.462 51.7L247.362 80.8C247.562 81.4667 247.862 81.8 248.262 81.8C248.728 81.8 249.062 81.4667 249.262 80.8L256.062 54.9C256.195 54.3667 256.262 53.8333 256.262 53.3C256.328 52.7667 256.262 52.2 256.062 51.6C255.595 50 255.128 49 254.662 48.6C254.262 48.1333 253.595 47.8 252.662 47.6L251.162 47.3C250.295 47.1 249.862 46.6667 249.862 46C249.862 45.3333 250.328 45 251.262 45H267.462C268.395 45 268.862 45.3333 268.862 46C268.862 46.7333 268.428 47.1667 267.562 47.3L265.962 47.5C264.362 47.7 263.395 48.1 263.062 48.7C262.728 49.2333 262.695 50.2333 262.962 51.7L269.362 80.6C269.495 81.2667 269.762 81.6 270.162 81.6C270.628 81.6 270.962 81.2667 271.162 80.6L278.762 53.5C279.295 51.7 279.428 50.3667 279.162 49.5C278.962 48.5667 278.028 47.9667 276.362 47.7L274.262 47.3C273.395 47.1 272.962 46.6667 272.962 46C272.962 45.3333 273.428 45 274.362 45H286.862C287.795 45 288.262 45.3667 288.262 46.1C288.262 46.7667 287.862 47.2333 287.062 47.5L286.162 47.8C285.162 48.1333 284.295 48.7333 283.562 49.6C282.828 50.4667 282.162 51.9667 281.562 54.1L270.162 94.9C269.828 96.2333 269.195 96.9 268.262 96.9C267.462 96.9 266.895 96.2333 266.562 94.9L258.762 62.9C258.562 62.1667 258.228 61.8 257.762 61.8C257.362 61.7333 257.062 62.1 256.862 62.9L248.262 94.9C247.928 96.2333 247.328 96.9 246.462 96.9Z" fill="#B5BEC4"/>
<path d="M307.822 96C306.822 96 306.322 95.6333 306.322 94.9C306.322 94.3 306.755 93.9 307.622 93.7L309.922 93.3C311.322 93.0333 312.222 92.6667 312.622 92.2C313.089 91.7333 313.322 90.8 313.322 89.4V30.6C313.322 29.2 313.089 28.2667 312.622 27.8C312.222 27.3333 311.322 26.9667 309.922 26.7L307.622 26.3C306.755 26.1 306.322 25.7 306.322 25.1C306.322 24.3667 306.822 24 307.822 24H340.022C341.555 24 342.389 24.7667 342.522 26.3L343.322 42.9C343.455 44.0333 343.022 44.6 342.022 44.6C341.222 44.6 340.755 44.1667 340.622 43.3L340.122 40C339.589 36.5333 338.655 33.8333 337.322 31.9C335.989 29.9667 334.489 28.6 332.822 27.8C331.155 26.9333 329.555 26.5 328.022 26.5C325.089 26.5 323.089 26.9667 322.022 27.9C320.955 28.8333 320.422 30.2667 320.422 32.2V55.8C320.422 56.7333 320.889 57.2 321.822 57.2H325.322C328.255 57.2 330.055 55.6333 330.722 52.5L331.822 47.5C332.022 46.6333 332.522 46.2 333.322 46.2C334.122 46.2 334.522 46.7667 334.522 47.9V70.4C334.522 71.5333 334.122 72.1 333.322 72.1C332.522 72.1 332.022 71.6667 331.822 70.8L330.722 65.9C330.255 63.5667 329.589 62.0333 328.722 61.3C327.922 60.5667 326.755 60.2 325.222 60.2H321.822C320.889 60.2 320.422 60.6667 320.422 61.6V88.9C320.422 90.3 320.622 91.3 321.022 91.9C321.489 92.4333 322.422 92.8 323.822 93L328.522 93.7C329.255 93.8333 329.622 94.2 329.622 94.8C329.622 95.6 329.122 96 328.122 96H307.822ZM347.242 96C346.442 96 346.042 95.6333 346.042 94.9C346.042 94.2333 346.409 93.8333 347.142 93.7L348.542 93.5C349.942 93.3 350.976 92.9 351.642 92.3C352.309 91.7 352.642 90.7 352.642 89.3V32C352.642 30.8 352.442 29.9667 352.042 29.5C351.709 29.0333 351.076 28.7667 350.142 28.7L347.842 28.4C347.109 28.2667 346.742 27.8667 346.742 27.2C346.742 26.5333 347.109 26.1333 347.842 26C349.709 25.6 351.309 25.1333 352.642 24.6C353.976 24.0667 355.076 23.5333 355.942 23C357.009 22.3333 357.809 22 358.342 22C359.076 22 359.442 22.5333 359.442 23.6V89.3C359.442 90.7 359.642 91.7 360.042 92.3C360.509 92.8333 361.442 93.2 362.842 93.4L365.142 93.7C365.876 93.8333 366.242 94.2333 366.242 94.9C366.242 95.6333 365.842 96 365.042 96H347.242ZM386.415 96.9C383.215 96.9 380.348 95.8333 377.815 93.7C375.282 91.5667 373.248 88.5667 371.715 84.7C370.248 80.7667 369.515 76.2333 369.515 71.1C369.515 65.8333 370.282 61.2 371.815 57.2C373.348 53.2 375.448 50.0667 378.115 47.8C380.782 45.5333 383.748 44.4 387.015 44.4C390.948 44.4 394.115 46.0333 396.515 49.3C398.982 52.5 400.215 57.7333 400.215 65C400.215 67.2 399.382 68.3 397.715 68.3H378.715C377.382 68.3 376.715 69.0667 376.715 70.6C376.715 77.6667 377.748 82.9667 379.815 86.5C381.882 90.0333 384.515 91.8 387.715 91.8C390.248 91.8 392.315 90.9 393.915 89.1C395.515 87.3 396.815 84.2667 397.815 80C398.015 79.2667 398.448 78.9 399.115 78.9C399.915 78.9 400.215 79.5667 400.015 80.9C398.948 86.8333 397.248 91 394.915 93.4C392.582 95.7333 389.748 96.9 386.415 96.9ZM378.415 65.8H388.515C391.715 65.8 393.315 64.1333 393.315 60.8C393.315 56.4667 392.782 53.0667 391.715 50.6C390.648 48.1333 389.048 46.9 386.915 46.9C384.315 46.9 382.115 48.4 380.315 51.4C378.582 54.4 377.448 58.6667 376.915 64.2C376.782 65.2667 377.282 65.8 378.415 65.8ZM417.462 96.9C415.128 96.9 413.195 96.1 411.662 94.5C410.195 92.8333 409.462 90.1333 409.462 86.4V49C409.462 48.2 409.062 47.8 408.262 47.8H405.362C404.295 47.8 403.762 47.4 403.762 46.6C403.762 46.0667 404.062 45.6 404.662 45.2C406.862 43.6667 408.628 42.0333 409.962 40.3C411.295 38.5 412.462 36.0667 413.462 33C413.928 31.6 414.495 30.9 415.162 30.9C415.895 30.9 416.262 31.4333 416.262 32.5V43.6C416.262 44.5333 416.728 45 417.662 45H424.162C425.228 45 425.762 45.4667 425.762 46.4C425.762 47.3333 425.228 47.8 424.162 47.8H417.662C416.728 47.8 416.262 48.2667 416.262 49.2V86.5C416.262 87.9667 416.495 89.1333 416.962 90C417.428 90.8 418.295 91.2 419.562 91.2C420.962 91.2 422.095 90.5 422.962 89.1C423.895 87.7 424.495 85.4333 424.762 82.3C424.895 81.3667 425.328 80.9 426.062 80.9C426.862 80.9 427.262 81.4 427.262 82.4C427.062 87.5333 425.995 91.2333 424.062 93.5C422.195 95.7667 419.995 96.9 417.462 96.9ZM446.641 96.9C443.707 96.9 441.041 95.9333 438.641 94C436.307 92 434.441 89.1667 433.041 85.5C431.641 81.8333 430.941 77.4667 430.941 72.4C430.941 66.7333 431.774 61.8 433.441 57.6C435.174 53.4 437.507 50.1667 440.441 47.9C443.374 45.5667 446.641 44.4 450.241 44.4C453.307 44.4 455.707 45 457.441 46.2C458.107 46.6667 458.441 47.4 458.441 48.4L458.641 60.6C458.641 61.6 458.241 62.1 457.441 62.1C456.707 62.1 456.241 61.6667 456.041 60.8C455.107 57.1333 454.207 54.3 453.341 52.3C452.474 50.3 451.574 48.9333 450.641 48.2C449.707 47.4 448.674 47 447.541 47C446.207 47 444.807 47.7667 443.341 49.3C441.941 50.8333 440.741 53.3333 439.741 56.8C438.807 60.2 438.341 64.7 438.341 70.3C438.341 77.4333 439.241 82.8 441.041 86.4C442.907 90 445.307 91.8 448.241 91.8C450.574 91.8 452.507 90.8333 454.041 88.9C455.641 86.9667 457.007 83.4667 458.141 78.4C458.341 77.6667 458.741 77.3 459.341 77.3C460.141 77.3 460.441 77.9667 460.241 79.3C459.507 83.9667 458.474 87.6 457.141 90.2C455.874 92.7333 454.341 94.5 452.541 95.5C450.807 96.4333 448.841 96.9 446.641 96.9ZM465.227 96C464.427 96 464.027 95.6333 464.027 94.9C464.027 94.2333 464.394 93.8333 465.127 93.7L466.527 93.5C467.927 93.3 468.827 92.9 469.227 92.3C469.694 91.7 469.927 90.7 469.927 89.3V32C469.927 30.8 469.727 30 469.327 29.6C468.994 29.1333 468.361 28.8333 467.427 28.7L465.327 28.4C464.594 28.2667 464.227 27.8667 464.227 27.2C464.227 26.5333 464.594 26.1333 465.327 26C467.194 25.6 468.761 25.1333 470.027 24.6C471.294 24.0667 472.361 23.5333 473.227 23C474.294 22.3333 475.094 22 475.627 22C476.361 22 476.727 22.5333 476.727 23.6V50.1C476.727 50.7 476.927 51.0667 477.327 51.2C477.727 51.2667 478.227 51.0333 478.827 50.5C481.361 48.1667 483.594 46.5667 485.527 45.7C487.461 44.8333 489.494 44.4 491.627 44.4C494.761 44.4 497.227 45.4667 499.027 47.6C500.827 49.6667 501.727 52.7333 501.727 56.8V89.3C501.727 90.7 501.927 91.7 502.327 92.3C502.794 92.8333 503.727 93.2 505.127 93.4L507.327 93.7C508.061 93.8333 508.427 94.2333 508.427 94.9C508.427 95.6333 508.027 96 507.227 96H490.427C489.494 96 489.027 95.6333 489.027 94.9C489.027 94.2333 489.394 93.8333 490.127 93.7L491.527 93.5C492.927 93.3 493.827 92.9 494.227 92.3C494.694 91.7 494.927 90.7 494.927 89.3V57.9C494.927 54.6333 494.327 52.3333 493.127 51C491.927 49.6667 490.227 49 488.027 49C485.894 49 483.961 49.6333 482.227 50.9C480.561 52.1 479.227 53.7333 478.227 55.8C477.227 57.8 476.727 60.0333 476.727 62.5V89.3C476.727 90.7 476.927 91.7 477.327 92.3C477.794 92.9 478.727 93.2667 480.127 93.4L482.827 93.7C483.561 93.8333 483.927 94.2333 483.927 94.9C483.927 95.6333 483.527 96 482.727 96H465.227ZM560.447 51.4C563.18 46.7333 566.48 44.4 570.347 44.4C572.547 44.4 574.18 45.0667 575.247 46.4C576.314 47.6667 576.847 49.1 576.847 50.7C576.847 51.9667 576.514 53 575.847 53.8C575.247 54.6 574.28 55 572.947 55C571.88 55 571.08 54.7667 570.547 54.3C570.08 53.7667 569.68 53.1667 569.347 52.5C569.08 51.8333 568.747 51.2667 568.347 50.8C567.947 50.2667 567.28 50 566.347 50C565.147 50 564.014 50.7333 562.947 52.2C561.88 53.6 560.98 55.5 560.247 57.9C559.58 60.3 559.247 63.0333 559.247 66.1V89.3C559.247 90.7 559.447 91.7 559.847 92.3C560.314 92.9 561.247 93.2667 562.647 93.4L565.347 93.7C566.08 93.8333 566.447 94.2 566.447 94.8C566.447 95.6 565.947 96 564.947 96H548.047C547.047 96 546.547 95.6333 546.547 94.9C546.547 94.3 546.98 93.9 547.847 93.7L549.047 93.5C550.447 93.2333 551.347 92.8333 551.747 92.3C552.214 91.7 552.447 90.7 552.447 89.3V55.7C552.447 54.5 552.247 53.7 551.847 53.3C551.514 52.8333 550.88 52.5333 549.947 52.4L547.847 52.1C546.98 52.0333 546.547 51.6667 546.547 51C546.547 50.4667 547.08 50.1 548.147 49.9C550.214 49.5667 551.78 49.0333 552.847 48.3C553.98 47.5667 555.147 46.6667 556.347 45.6C556.947 45 557.447 44.7 557.847 44.7C558.447 44.7 558.747 45.1 558.747 45.9V51.3C558.747 51.7667 558.947 52.0667 559.347 52.2C559.747 52.2667 560.114 52 560.447 51.4Z" fill="#2E82D0"/>
<path d="M528.7 96.9C525.5 96.9 522.633 95.8333 520.1 93.7C517.567 91.5667 515.533 88.5667 514 84.7C512.533 80.7667 511.8 76.2333 511.8 71.1C511.8 65.8333 512.567 61.2 514.1 57.2C515.633 53.2 517.733 50.0667 520.4 47.8C523.067 45.5333 526.033 44.4 529.3 44.4C533.233 44.4 536.4 46.0333 538.8 49.3C541.267 52.5 542.5 57.7333 542.5 65C542.5 67.2 541.667 68.3 540 68.3H521C519.667 68.3 519 69.0667 519 70.6C519 77.6667 520.033 82.9667 522.1 86.5C524.167 90.0333 526.8 91.8 530 91.8C532.533 91.8 534.6 90.9 536.2 89.1C537.8 87.3 539.1 84.2667 540.1 80C540.3 79.2667 540.733 78.9 541.4 78.9C542.2 78.9 542.5 79.5667 542.3 80.9C541.233 86.8333 539.533 91 537.2 93.4C534.867 95.7333 532.033 96.9 528.7 96.9ZM520.7 65.8H530.8C534 65.8 535.6 64.1333 535.6 60.8C535.6 56.4667 535.067 53.0667 534 50.6C532.933 48.1333 531.333 46.9 529.2 46.9C526.6 46.9 524.4 48.4 522.6 51.4C520.867 54.4 519.733 58.6667 519.2 64.2C519.067 65.2667 519.567 65.8 520.7 65.8Z" fill="#2E82D0" fill-opacity="0.4"/>
<rect x="512" y="66" width="31" height="6" rx="1" fill="#2E82D0"/>
</svg>
